<svg width="65" height="60" viewBox="0 0 65 60" fill="none" xmlns="http://www.w3.org/2000/svg">
<path d="M0.0234375 12.3555C2.20443 12.6159 4.09245 12.8112 5.6875 12.9414C7.28255 13.0391 8.60091 13.1204 9.64258 13.1855C10.847 13.2507 11.8561 13.2669 12.6699 13.2344C13.5163 13.2018 14.6719 13.1204 16.1367 12.9902C17.3737 12.8926 19.0013 12.7624 21.0195 12.5996C23.0378 12.4043 25.5605 12.1439 28.5879 11.8184C28.6204 12.5671 28.6367 13.2995 28.6367 14.0156C28.6693 14.6992 28.7018 15.3014 28.7344 15.8223C28.7669 16.4408 28.7832 17.0104 28.7832 17.5312C28.7832 18.0846 28.7507 18.7845 28.6855 19.6309C28.6204 20.347 28.5065 21.2585 28.3438 22.3652C28.2135 23.4395 28.002 24.7253 27.709 26.2227C27.2533 24.4648 26.8138 23.0488 26.3906 21.9746C25.9674 20.8678 25.5768 19.9889 25.2188 19.3379C24.8281 18.5892 24.4375 18.0195 24.0469 17.6289C23.6237 17.3359 23.1191 17.0918 22.5332 16.8965C22.0124 16.7337 21.3451 16.6035 20.5312 16.5059C19.75 16.4082 18.8223 16.4245 17.748 16.5547C17.5853 20.8516 17.4714 24.3346 17.4062 27.0039C17.3411 29.6732 17.2923 31.7565 17.2598 33.2539C17.2272 35.0443 17.2109 36.3301 17.2109 37.1113C17.2435 38.2181 17.4225 39.3086 17.748 40.3828C18.0085 41.2943 18.4316 42.2383 19.0176 43.2148C19.6035 44.1914 20.4499 45.054 21.5566 45.8027H15.5996C15.0462 45.8027 14.3626 45.8353 13.5488 45.9004C12.8652 45.9655 11.9863 46.0306 10.9121 46.0957C9.87044 46.1608 8.64974 46.2747 7.25 46.4375C7.73828 45.5911 8.12891 44.8262 8.42188 44.1426C8.71484 43.459 8.94271 42.873 9.10547 42.3848C9.30078 41.7988 9.44727 41.278 9.54492 40.8223C9.57747 40.1712 9.65885 38.8529 9.78906 36.8672C9.82161 36.0534 9.85417 35.0443 9.88672 33.8398C9.95182 32.6354 10.0169 31.2031 10.082 29.543C10.1797 27.8828 10.2611 25.9785 10.3262 23.8301C10.4238 21.6491 10.5215 19.1914 10.6191 16.457C10.0332 16.2943 9.47982 16.3105 8.95898 16.5059C8.43815 16.6686 7.98242 16.8802 7.5918 17.1406C7.13607 17.4661 6.69661 17.8568 6.27344 18.3125C5.85026 18.8659 5.37826 19.582 4.85742 20.4609C4.40169 21.2096 3.88086 22.2025 3.29492 23.4395C2.70898 24.6439 2.04167 26.1413 1.29297 27.9316C1.13021 26.0436 1.01628 24.4974 0.951172 23.293C0.886068 22.056 0.83724 21.0957 0.804688 20.4121C0.772135 19.5983 0.755859 18.9961 0.755859 18.6055C0.755859 18.2474 0.723307 17.7754 0.658203 17.1895C0.593099 16.7012 0.511719 16.0664 0.414062 15.2852C0.316406 14.4714 0.186198 13.4948 0.0234375 12.3555Z" fill="#F1096B"/>
<path d="M47.0918 12.7461C49.1751 12.7135 50.8841 13.0879 52.2188 13.8691C53.5859 14.6504 54.6927 15.5781 55.5391 16.6523C56.3854 17.7266 57.0365 18.8171 57.4922 19.9238C57.9479 20.998 58.306 21.8444 58.5664 22.4629C58.6315 22.6257 58.7617 22.8372 58.957 23.0977C59.1198 23.3255 59.3477 23.6022 59.6406 23.9277C59.9661 24.2207 60.373 24.5625 60.8613 24.9531C59.8522 24.9857 58.957 25.0182 58.1758 25.0508C57.3945 25.0508 56.7272 25.0671 56.1738 25.0996C55.5553 25.1322 55.002 25.1647 54.5137 25.1973C54.0254 25.2298 53.4232 25.2786 52.707 25.3438C52.056 25.4089 51.2585 25.474 50.3145 25.5391C49.3704 25.6042 48.2148 25.7018 46.8477 25.832C47.6615 24.8555 48.2962 23.9928 48.752 23.2441C49.2402 22.4629 49.5983 21.7793 49.8262 21.1934C50.0866 20.5749 50.2331 20.0378 50.2656 19.582C50.3307 19.1263 50.3145 18.7357 50.2168 18.4102C50.0215 17.6615 49.5169 17.1243 48.7031 16.7988C46.3594 16.1478 44.3086 16.6686 42.5508 18.3613C40.8255 20.0215 39.5885 22.7559 38.8398 26.5645C38.4818 28.4525 38.14 30.4219 37.8145 32.4727C37.5215 34.4909 37.4076 36.3464 37.4727 38.0391C37.5378 39.6992 37.8633 41.0501 38.4492 42.0918C39.0352 43.1335 40.0443 43.6217 41.4766 43.5566C42.8763 43.4915 44.0645 43.2637 45.041 42.873C46.0176 42.4499 46.7988 41.9616 47.3848 41.4082C47.9707 40.8223 48.3776 40.2038 48.6055 39.5527C48.8659 38.8691 48.9635 38.2344 48.8984 37.6484C48.7682 37.1927 48.4264 36.7044 47.873 36.1836C47.3848 35.7279 46.6523 35.2233 45.6758 34.6699C44.6992 34.084 43.2995 33.4818 41.4766 32.8633C43.2018 32.7656 44.6178 32.7005 45.7246 32.668C46.8639 32.6029 47.7591 32.5378 48.4102 32.4727C49.1914 32.4076 49.7936 32.3587 50.2168 32.3262C50.6074 32.2936 51.1771 32.2611 51.9258 32.2285C52.5768 32.196 53.4069 32.1797 54.416 32.1797C55.4577 32.1797 56.7598 32.1634 58.3223 32.1309C57.7363 32.7168 57.2806 33.2539 56.9551 33.7422C56.7923 34.0026 56.6458 34.2305 56.5156 34.4258C56.3854 34.7513 56.3366 35.4186 56.3691 36.4277C56.3691 37.2741 56.4342 38.5273 56.5645 40.1875C56.6947 41.8151 56.9388 44.0449 57.2969 46.877L50.8027 47.7559L51.0957 41.1641C50.347 42.9544 49.403 44.2891 48.2637 45.168C47.1569 46.0469 46.099 46.6654 45.0898 47.0234C43.8854 47.4466 42.6322 47.6419 41.3301 47.6094C39.6374 47.4466 37.9447 47.056 36.252 46.4375C34.5592 45.819 33.0618 44.875 31.7598 43.6055C30.4577 42.3034 29.4486 40.627 28.7324 38.5762C28.0488 36.5254 27.8372 33.9863 28.0977 30.959C28.3906 27.9316 29.1068 25.2949 30.2461 23.0488C31.418 20.7702 32.8665 18.8822 34.5918 17.3848C36.3171 15.8874 38.2539 14.7643 40.4023 14.0156C42.5833 13.2344 44.8132 12.8112 47.0918 12.7461Z" fill="#131313"/>
<path d="M21.8949 21.2898L22.3636 21.2898L22.3636 24.5625L21.8949 24.5625L21.8949 23.1903L18 23.1903L18 22.6619L21.8949 22.6619L21.8949 21.2898ZM20.1818 28.8782C19.7216 28.8782 19.3239 28.7951 18.9886 28.6289C18.6534 28.4627 18.3949 28.2347 18.2131 27.945C18.0312 27.6552 17.9403 27.3242 17.9403 26.9521C17.9403 26.5799 18.0312 26.2489 18.2131 25.9592C18.3949 25.6694 18.6534 25.4414 18.9886 25.2752C19.3239 25.109 19.7216 25.0259 20.1818 25.0259C20.642 25.0259 21.0398 25.109 21.375 25.2752C21.7102 25.4414 21.9687 25.6694 22.1506 25.9592C22.3324 26.2489 22.4233 26.5799 22.4233 26.9521C22.4233 27.3242 22.3324 27.6552 22.1506 27.945C21.9687 28.2347 21.7102 28.4627 21.375 28.6289C21.0398 28.7951 20.642 28.8782 20.1818 28.8782ZM20.1818 28.3668C20.5597 28.3668 20.8786 28.3036 21.1385 28.1772C21.3984 28.0522 21.5952 27.8825 21.7287 27.668C21.8622 27.4549 21.929 27.2163 21.929 26.9521C21.929 26.6879 21.8622 26.4485 21.7287 26.234C21.5952 26.021 21.3984 25.8512 21.1385 25.7248C20.8786 25.5998 20.5597 25.5373 20.1818 25.5373C19.804 25.5373 19.4851 25.5998 19.2251 25.7248C18.9652 25.8512 18.7685 26.021 18.6349 26.234C18.5014 26.4485 18.4347 26.6879 18.4347 26.9521C18.4347 27.2163 18.5014 27.4549 18.6349 27.668C18.7685 27.8825 18.9652 28.0522 19.2251 28.1772C19.4851 28.3036 19.804 28.3668 20.1818 28.3668ZM18 29.7667L22.3636 29.7667L22.3636 32.3832L21.8949 32.3832L21.8949 30.2951L20.4205 30.2951L20.4205 32.1871L19.9517 32.1871L19.9517 30.2951L18 30.2951L18 29.7667ZM22.3636 36.1518L22.3636 36.6802L19.4744 36.6802C19.1761 36.6802 18.9098 36.6099 18.6754 36.4693C18.4425 36.3301 18.2585 36.1333 18.1236 35.8791C17.9901 35.6248 17.9233 35.3265 17.9233 34.9842C17.9233 34.6419 17.9901 34.3436 18.1236 34.0893C18.2585 33.835 18.4425 33.6376 18.6754 33.497C18.9098 33.3578 19.1761 33.2882 19.4744 33.2882L22.3636 33.2882L22.3636 33.8166L19.517 33.8166C19.304 33.8166 19.1143 33.8635 18.9482 33.9572C18.7834 34.051 18.6534 34.1845 18.5582 34.3578C18.4645 34.5325 18.4176 34.7413 18.4176 34.9842C18.4176 35.2271 18.4645 35.4359 18.5582 35.6106C18.6534 35.7853 18.7834 35.9189 18.9482 36.0112C19.1143 36.1049 19.304 36.1518 19.517 36.1518L22.3636 36.1518Z" fill="#131313"/>
<path d="M62 34.5114C62.1435 34.4645 62.272 34.4027 62.3857 34.326C62.5007 34.2507 62.5987 34.1605 62.6797 34.0554C62.7607 33.9517 62.8224 33.8338 62.8651 33.7017C62.9077 33.5696 62.929 33.4247 62.929 33.267C62.929 33.0085 62.8622 32.7734 62.7287 32.5618C62.5952 32.3501 62.3984 32.1818 62.1385 32.0568C61.8786 31.9318 61.5597 31.8693 61.1818 31.8693C60.804 31.8693 60.4851 31.9325 60.2251 32.0589C59.9652 32.1854 59.7685 32.3565 59.6349 32.5724C59.5014 32.7884 59.4347 33.0312 59.4347 33.3011C59.4347 33.5511 59.4879 33.7713 59.5945 33.9616C59.7024 34.1534 59.8544 34.3026 60.0504 34.4091C60.2479 34.517 60.4801 34.571 60.7472 34.571L60.7131 34.733L60.7131 33.4205L61.1818 33.4205L61.1818 35.0824L60.7131 35.0824C60.3537 35.0824 60.0412 35.0057 59.7756 34.8523C59.5099 34.7003 59.304 34.4901 59.1577 34.2216C59.0128 33.9545 58.9403 33.6477 58.9403 33.3011C58.9403 32.9148 59.0312 32.5753 59.2131 32.2827C59.3949 31.9915 59.6534 31.7642 59.9886 31.6009C60.3239 31.4389 60.7216 31.358 61.1818 31.358C61.527 31.358 61.8374 31.4041 62.1129 31.4964C62.3899 31.5902 62.6257 31.7223 62.8203 31.8928C63.0149 32.0632 63.1641 32.2649 63.2678 32.4979C63.3714 32.7308 63.4233 32.9872 63.4233 33.267C63.4233 33.4972 63.3885 33.7116 63.3189 33.9105C63.2507 34.1108 63.1534 34.2891 63.027 34.4453C62.902 34.603 62.7521 34.7344 62.5774 34.8395C62.4041 34.9446 62.2116 35.017 62 35.0568L62 34.5114ZM59 36.0316L59 35.4776L63.3636 37.0799L63.3636 37.6254L59 39.2276L59 38.6737L62.6733 37.3697L62.6733 37.3356L59 36.0316ZM60.7045 36.2362L60.7045 38.4691L60.2358 38.4691L60.2358 36.2362L60.7045 36.2362ZM63.3636 39.9073L63.3636 40.538L59.7415 42.021L59.7415 42.0721L63.3636 43.555L63.3636 44.1857L59 44.1857L59 43.6914L62.3153 43.6914L62.3153 43.6488L59 42.2852L59 41.8079L62.3153 40.4442L62.3153 40.4016L59 40.4016L59 39.9073L63.3636 39.9073ZM59 45.2452L63.3636 45.2452L63.3636 47.8787L62.8949 47.8787L62.8949 45.7736L61.4205 45.7736L61.4205 47.7424L60.9517 47.7424L60.9517 45.7736L59.4687 45.7736L59.4687 47.9128L59 47.9128L59 45.2452Z" fill="#F1096B"/>
</svg>
